<?xml version="1.0" standalone="no"?>
<!DOCTYPE svg PUBLIC "-//W3C//DTD SVG 20010904//EN"
 "http://www.w3.org/TR/2001/REC-SVG-20010904/DTD/svg10.dtd">
<svg version="1.0" xmlns="http://www.w3.org/2000/svg"
 width="3508.000000pt" height="2481.000000pt" viewBox="0 0 3508.000000 2481.000000"
 preserveAspectRatio="xMidYMid meet">

<g transform="translate(0.000000,2481.000000) scale(0.100000,-0.100000)"
fill="#000000" stroke="none">
<path d="M17070 22804 c-25 -2 -124 -8 -220 -14 -787 -48 -1609 -200 -2385
-442 -369 -114 -900 -312 -888 -331 3 -6 1 -7 -5 -3 -13 8 -64 -12 -282 -110
-93 -42 -167 -80 -164 -85 3 -5 -1 -6 -9 -3 -24 9 -609 -295 -827 -429 -36
-22 -87 -53 -115 -69 -59 -34 -47 -26 -250 -158 -276 -179 -325 -212 -320
-220 2 -3 -1 -7 -8 -7 -7 0 -53 -29 -102 -64 -50 -35 -101 -72 -115 -80 -14
-9 -38 -28 -53 -43 -15 -14 -30 -26 -33 -26 -3 0 -40 -28 -83 -62 -43 -35
-114 -90 -157 -123 -135 -103 -371 -308 -634 -550 -77 -70 -393 -387 -465
-465 -108 -118 -242 -268 -286 -320 -26 -30 -75 -89 -111 -130 -60 -71 -119
-144 -179 -221 -15 -19 -60 -77 -100 -129 -69 -88 -286 -384 -318 -433 -8 -12
-50 -75 -93 -140 -43 -65 -76 -123 -72 -129 4 -6 3 -9 -2 -5 -5 3 -45 -52 -88
-121 -355 -569 -683 -1237 -918 -1867 -75 -201 -236 -694 -243 -745 -1 -8 -5
-22 -8 -30 -26 -61 -149 -571 -197 -810 -88 -443 -144 -883 -182 -1415 -16
-228 -16 -1001 0 -1230 62 -870 178 -1535 408 -2327 82 -281 203 -630 217
-621 6 3 7 1 3 -5 -13 -22 177 -499 309 -777 32 -66 61 -130 66 -143 5 -13 13
-20 19 -17 5 3 8 0 5 -7 -7 -18 63 -161 75 -153 5 3 8 0 5 -7 -3 -7 14 -51 38
-98 69 -134 148 -281 175 -325 14 -22 39 -64 55 -94 23 -43 108 -183 210 -346
190 -303 429 -643 449 -637 5 1 7 -2 4 -7 -6 -9 89 -143 105 -149 5 -2 9 -8 9
-13 0 -18 63 -89 73 -82 6 3 7 1 3 -5 -4 -6 5 -24 18 -39 14 -15 47 -55 73
-88 111 -141 265 -315 274 -310 5 4 7 0 4 -7 -2 -7 21 -40 51 -73 131 -141
186 -195 195 -189 5 3 6 -1 4 -8 -9 -22 598 -613 629 -613 6 0 11 -6 11 -13 0
-18 35 -43 48 -35 6 3 7 1 4 -4 -7 -11 102 -108 263 -236 47 -37 94 -75 105
-85 63 -55 124 -102 133 -102 6 0 12 -4 14 -8 9 -23 386 -295 643 -464 221
-146 295 -189 307 -182 7 4 8 3 4 -4 -8 -14 30 -36 46 -26 6 4 8 3 5 -3 -5 -8
159 -113 177 -113 3 0 24 -13 48 -29 81 -54 238 -132 249 -125 8 4 9 3 5 -4
-6 -11 381 -207 584 -297 47 -20 108 -48 137 -61 104 -48 432 -177 618 -243
404 -144 637 -214 1030 -311 1123 -275 2261 -360 3430 -255 778 70 1578 238
2330 489 219 73 646 234 760 286 33 15 110 49 170 75 139 60 541 257 677 331
57 31 128 70 158 86 75 41 232 132 305 178 33 20 110 68 170 106 340 212 872
594 859 616 -4 6 -2 8 3 5 6 -4 59 32 118 81 59 48 120 96 136 108 68 49 218
187 213 196 -3 4 0 7 6 6 19 -5 244 202 502 462 281 283 559 590 703 775 17
22 54 67 83 102 31 36 50 68 46 75 -4 6 -3 8 3 5 17 -10 217 258 206 277 -3 6
-3 8 2 4 13 -12 86 88 79 109 -4 13 -3 14 4 5 16 -23 376 532 579 893 144 257
235 434 227 447 -4 6 -3 8 3 5 5 -3 31 37 56 91 100 211 157 333 157 337 0 3
11 28 24 57 120 265 297 737 393 1048 73 238 177 618 203 745 4 22 26 126 48
230 102 479 167 957 204 1505 16 238 16 998 0 1245 -79 1195 -333 2295 -779
3367 -36 87 -69 155 -74 152 -5 -3 -6 1 -3 9 10 27 -329 722 -348 711 -7 -4
-8 -3 -4 4 7 12 -82 188 -136 270 -15 24 -28 46 -28 49 0 16 -143 242 -151
238 -5 -3 -6 1 -3 9 3 8 -4 24 -15 35 -12 12 -19 21 -16 21 19 0 -432 665
-477 703 -11 9 -17 17 -12 17 4 0 -2 10 -13 23 -11 12 -50 61 -85 108 -73 97
-66 89 -145 184 -32 39 -63 77 -70 85 -208 259 -719 811 -817 882 -21 15 -36
28 -32 28 4 0 1 6 -6 13 -45 43 -163 151 -222 202 -38 33 -78 69 -90 80 -11
11 -37 34 -57 50 -20 17 -103 86 -185 155 -82 68 -167 138 -189 155 -234 180
-314 239 -467 346 -222 156 -470 317 -612 399 -17 9 -60 35 -96 57 -120 73
-201 114 -212 107 -7 -4 -8 -3 -4 4 8 14 -30 36 -46 26 -6 -4 -8 -3 -5 3 8 13
-130 86 -145 77 -7 -4 -8 -3 -4 4 12 19 -808 411 -871 415 -12 1 -19 4 -17 6
2 3 -15 12 -38 22 -24 9 -72 29 -108 44 -117 48 -552 201 -705 248 -270 82
-321 97 -537 151 -597 152 -1120 237 -1838 297 -120 10 -1097 21 -1190 13z
m5695 -1434 c-3 -5 -12 -10 -18 -10 -7 0 -6 4 3 10 19 12 23 12 15 0z m-4955
-936 c0 -4 -23 -33 -51 -65 -49 -57 -53 -59 -100 -59 -27 0 -49 3 -49 6 0 7
18 41 47 87 23 37 24 37 88 37 36 0 65 -3 65 -6z m-37 -191 l128 -6 -3 -56 -3
-56 -182 4 -183 4 0 -76 0 -77 173 -2 172 -3 3 -34 c2 -19 1 -45 -3 -58 l-6
-24 -175 7 -175 7 3 -74 3 -74 178 -3 177 -2 0 -63 0 -62 -202 6 c-112 4 -223
7 -247 8 l-43 1 6 138 c3 75 9 219 12 320 l6 182 117 0 c64 0 174 -3 244 -7z
m-1305 -150 c6 -54 19 -172 28 -263 10 -91 19 -167 20 -169 2 -2 76 4 164 14
88 10 163 15 166 13 2 -3 7 -28 11 -56 l6 -50 -54 -6 c-326 -37 -395 -43 -400
-38 -4 4 -12 57 -18 117 -6 61 -20 193 -31 295 -27 251 -30 228 33 233 28 2
55 4 58 5 3 1 11 -42 17 -95z m2458 43 c34 -15 78 -45 99 -66 l37 -38 -41 -30
-42 -30 -50 34 c-82 55 -132 64 -216 39 -148 -44 -205 -257 -99 -373 48 -54
148 -81 227 -62 55 13 63 24 73 91 l7 46 -82 13 -81 13 7 51 c3 28 8 52 9 54
3 3 268 -37 273 -41 6 -7 -39 -262 -48 -274 -6 -7 -36 -25 -68 -40 -49 -25
-67 -28 -146 -27 -119 1 -190 27 -260 98 -61 61 -85 121 -85 216 0 110 30 189
104 268 86 93 249 118 382 58z m-3300 -159 c130 -66 208 -241 174 -388 -35
-153 -173 -252 -351 -252 -119 0 -219 64 -273 175 -83 169 -35 358 112 445 69
41 120 53 207 50 62 -3 91 -9 131 -30z m4139 -29 c26 -7 45 -18 45 -26 0 -8
-23 -98 -51 -200 -28 -103 -64 -236 -81 -297 -16 -60 -31 -111 -32 -112 -3 -3
-109 27 -114 32 -2 2 151 570 163 603 5 15 13 15 70 0z m-5263 -294 c39 -8 41
-16 18 -67 l-20 -46 -53 6 c-152 15 -264 -87 -255 -232 5 -89 44 -150 117
-187 63 -32 87 -34 162 -12 42 12 66 28 108 71 l53 55 44 -17 c24 -9 46 -21
50 -26 15 -26 -81 -131 -155 -169 -227 -115 -460 1 -500 250 -24 146 45 278
181 344 87 42 147 49 250 30z m6198 -9 c72 -19 157 -79 197 -138 130 -195 -11
-500 -242 -524 -101 -11 -224 35 -300 111 -117 118 -110 324 16 461 87 95 198
125 329 90z m-9674 -1188 c199 -9 276 -16 288 -26 19 -16 22 -67 4 -74 -7 -2
-76 -1 -153 4 -280 16 -1055 31 -1257 25 -118 -4 -208 -3 -208 2 0 5 24 12 53
15 28 3 131 15 228 26 355 42 584 48 1045 28z m13954 -16 c102 -11 227 -25
279 -30 52 -6 99 -15 105 -22 8 -9 -43 -10 -219 -5 -209 5 -764 -3 -1215 -19
-106 -4 -180 -3 -189 3 -9 7 -11 19 -7 36 9 37 46 43 306 54 322 14 716 7 940
-17z m-1316 -7 c9 -3 16 -12 16 -19 0 -36 -85 -69 -205 -80 -38 -3 -117 -13
-175 -21 -58 -8 -199 -21 -315 -29 -126 -9 -259 -25 -335 -41 -108 -22 -129
-29 -151 -54 -15 -15 -44 -33 -65 -39 -22 -6 -144 -14 -272 -18 -128 -3 -235
-10 -238 -14 -3 -5 0 -18 6 -29 26 -48 -55 -77 -248 -87 l-114 -6 5 -27 c7
-34 -1 -46 -44 -64 -52 -22 -220 -54 -323 -62 -86 -7 -90 -8 -122 -44 -43 -47
-103 -66 -249 -80 -60 -5 -118 -10 -127 -10 -9 0 -18 -9 -20 -21 -5 -37 -49
-59 -163 -82 l-110 -23 3 -31 c6 -59 -77 -100 -308 -153 -141 -32 -180 -45
-180 -60 0 -5 11 -12 25 -16 14 -3 25 -12 25 -20 0 -18 -64 -61 -122 -80 -26
-8 -51 -20 -54 -26 -9 -14 15 -28 47 -28 15 0 32 -7 39 -15 23 -28 -35 -75
-152 -124 -53 -23 -57 -30 -28 -56 44 -40 16 -87 -66 -111 -29 -8 -64 -24 -76
-34 -22 -18 -22 -19 -3 -25 41 -13 70 -31 73 -47 5 -28 -46 -74 -127 -112 -45
-21 -81 -41 -81 -46 0 -12 23 -28 53 -35 36 -10 53 -40 37 -70 -16 -31 -61
-55 -160 -85 -52 -17 -85 -32 -85 -41 0 -7 30 -28 67 -46 126 -60 105 -115
-48 -128 -153 -13 -164 -22 -90 -76 79 -56 83 -118 8 -139 -20 -5 -74 -10
-119 -10 -94 0 -96 -3 -58 -65 30 -48 32 -81 6 -95 -22 -11 -107 -12 -192 -1
-31 4 -62 5 -68 3 -7 -2 -9 -28 -4 -78 7 -91 1 -93 -93 -29 -94 65 -122 62
-97 -12 21 -60 9 -72 -52 -55 -60 16 -117 15 -140 -1 -27 -20 -10 -37 38 -37
23 0 64 -7 91 -15 68 -21 78 -19 121 15 45 36 51 35 155 -26 41 -25 107 -54
147 -66 40 -11 82 -30 93 -40 28 -26 22 -65 -13 -92 -24 -17 -43 -21 -115 -21
-77 0 -93 3 -139 29 -29 16 -72 48 -95 72 -25 25 -46 40 -52 34 -13 -13 29
-65 103 -125 97 -78 115 -119 116 -262 0 -105 -1 -113 -25 -138 -14 -15 -33
-25 -44 -23 -29 4 -63 61 -87 142 -27 94 -50 147 -60 140 -5 -3 -9 -49 -9
-102 0 -107 -13 -145 -48 -150 -50 -7 -104 64 -120 159 -4 23 -13 44 -20 47
-19 6 -15 -80 8 -137 19 -50 19 -50 -1 -113 -28 -87 -23 -183 13 -259 32 -67
57 -154 97 -344 30 -140 64 -263 137 -492 37 -118 40 -123 67 -123 15 0 27 2
27 4 0 2 -11 28 -24 57 -59 133 -196 628 -196 706 0 34 7 49 35 78 29 32 39
36 62 30 41 -9 49 -22 72 -107 36 -132 142 -405 265 -680 19 -43 31 -58 46
-58 11 0 20 4 20 9 0 5 -24 63 -53 128 -78 171 -169 400 -213 536 -38 116 -38
117 -19 136 11 10 41 25 67 34 45 15 48 14 73 -4 14 -11 25 -25 25 -31 0 -38
178 -416 303 -640 68 -124 85 -148 104 -148 13 0 23 3 23 7 0 3 -26 52 -59
107 -70 121 -182 338 -235 456 -22 47 -59 128 -83 181 -25 53 -43 105 -41 115
4 21 10 21 112 6 65 -9 64 -8 111 -122 32 -76 166 -348 213 -430 147 -260 174
-300 199 -300 l25 0 -24 38 c-145 234 -468 867 -468 917 0 37 29 47 76 26 58
-27 88 -60 130 -142 73 -146 171 -308 337 -557 93 -139 175 -256 182 -258 8
-3 21 -4 29 -2 12 2 -2 29 -54 102 -102 144 -284 428 -385 601 -102 174 -115
220 -72 270 13 17 27 40 31 53 5 15 15 22 31 22 19 0 33 -16 70 -77 119 -201
304 -431 525 -656 99 -101 188 -200 205 -230 l30 -52 50 3 c28 1 66 5 85 8
l35 6 -52 23 c-76 34 -144 88 -278 222 -204 203 -373 407 -528 639 -48 71 -88
140 -89 154 -4 34 25 37 70 7 20 -13 62 -32 92 -42 88 -28 110 -43 195 -125
44 -42 225 -192 402 -334 178 -141 329 -266 337 -279 26 -42 40 -102 40 -179
l1 -77 35 4 c19 3 91 9 160 15 69 5 239 19 378 31 140 11 256 18 258 16 3 -2
-7 -51 -20 -108 -14 -57 -48 -203 -75 -323 -28 -120 -53 -221 -55 -223 -2 -3
-71 0 -153 6 -81 5 -155 10 -163 10 -8 0 -136 9 -285 20 -148 11 -585 43 -970
71 -385 28 -783 57 -885 65 -386 31 -589 45 -637 45 -43 0 -60 -7 -124 -48
-98 -64 -223 -146 -334 -217 -49 -32 -114 -73 -143 -92 l-53 -35 -247 147
c-136 81 -263 158 -282 170 -19 12 -57 35 -85 51 -57 33 -7 33 -455 -1 -255
-19 -2079 -151 -2290 -165 -85 -6 -220 -15 -299 -21 -91 -6 -147 -6 -150 0
-12 19 -164 641 -159 647 3 3 91 -2 194 -10 401 -34 1056 -86 1074 -86 11 0
29 18 45 46 15 26 109 131 209 233 99 103 258 270 351 371 94 101 190 205 215
232 40 43 55 51 134 73 136 39 136 33 9 -170 -111 -176 -227 -343 -408 -585
-89 -118 -164 -220 -168 -226 -4 -7 4 -9 21 -6 20 3 46 28 104 105 217 284
428 585 497 709 46 81 53 85 109 65 26 -10 62 -17 80 -17 27 0 32 -4 32 -23 0
-29 -337 -655 -446 -829 -23 -37 -23 -37 -3 -43 11 -4 22 -5 24 -3 28 29 384
679 432 788 31 74 63 120 80 120 19 0 93 -103 93 -129 0 -35 -63 -270 -109
-411 -21 -63 -66 -177 -100 -253 -33 -76 -61 -139 -61 -141 0 -1 10 -2 23 -1
18 1 32 24 83 141 80 179 115 285 175 518 45 177 50 191 85 228 44 44 62 47
94 13 33 -35 36 -100 10 -261 -41 -258 -68 -374 -96 -411 -14 -18 -32 -49 -40
-68 -15 -36 -19 -152 -6 -171 4 -6 30 -14 59 -18 l52 -7 -14 35 c-22 52 -18
95 12 157 l28 54 7 -67 c6 -68 23 -105 71 -159 28 -31 57 -44 57 -25 0 7 -12
31 -27 52 -35 51 -63 126 -63 167 1 49 33 109 80 150 52 44 66 47 46 10 -38
-75 -32 -153 19 -238 26 -42 35 -69 35 -101 0 -23 4 -45 9 -48 5 -4 86 -12
180 -20 171 -13 172 -14 226 -50 30 -20 57 -36 60 -36 3 0 5 36 5 79 0 213
-122 361 -297 361 l-42 0 21 -47 c23 -52 20 -111 -8 -165 -10 -20 -14 -45 -11
-70 3 -24 1 -38 -6 -38 -18 0 -67 52 -67 71 0 9 -16 36 -36 60 -68 81 -85 142
-59 205 24 58 63 93 124 111 153 44 315 -42 395 -211 53 -110 68 -183 65 -309
l-4 -108 45 -30 45 -31 48 54 49 53 -7 -81 c-5 -67 -3 -83 10 -94 24 -20 30
-5 34 88 3 78 6 90 38 138 l35 52 33 -19 c32 -19 33 -21 39 -107 10 -125 17
-172 27 -172 5 0 6 42 4 93 l-5 92 15 -53 c8 -29 20 -62 26 -73 10 -20 11 -20
42 4 35 28 36 32 16 145 -10 57 -10 88 -1 148 35 227 142 377 295 419 153 41
285 -26 295 -150 5 -58 -9 -94 -64 -162 -19 -23 -34 -49 -34 -58 0 -19 -53
-75 -70 -75 -8 0 -11 11 -7 33 2 19 -3 52 -14 80 -22 56 -24 132 -4 167 21 37
19 40 -28 40 -146 0 -260 -115 -288 -292 -11 -65 -3 -184 12 -194 5 -3 9 1 9
10 0 22 57 64 98 72 20 4 46 13 57 20 11 7 38 16 60 20 40 8 53 9 173 12 l62
2 0 53 c0 42 6 60 26 88 14 19 33 49 41 68 19 45 18 142 -2 181 -9 18 -15 34
-13 36 9 8 68 -37 94 -71 22 -30 29 -50 32 -100 4 -65 -4 -89 -69 -205 -17
-32 -18 -35 -2 -39 17 -3 36 16 84 88 24 38 29 55 29 109 0 71 9 73 42 9 26
-50 28 -120 6 -162 l-16 -31 53 6 c30 3 58 10 62 14 4 4 8 42 8 84 0 88 -21
139 -77 188 -18 16 -44 45 -57 64 -13 19 -39 51 -56 70 -27 28 -34 47 -40 95
-3 33 -20 129 -37 214 l-31 154 16 156 c15 151 11 204 -12 150 -24 -53 -62
-239 -68 -324 -4 -73 -2 -104 15 -165 11 -41 24 -103 27 -137 7 -60 6 -63 -14
-63 -12 0 -41 10 -64 22 -57 29 -183 36 -259 14 -74 -21 -135 -57 -182 -105
l-40 -41 -12 30 c-16 38 -50 40 -66 4 -9 -19 -9 -36 0 -70 19 -70 14 -73 -23
-14 -27 42 -35 65 -35 101 0 45 -13 70 -28 55 -3 -4 -7 -35 -8 -69 -1 -34 -5
-81 -9 -103 -7 -44 9 -89 47 -131 19 -21 19 -24 4 -92 -9 -38 -16 -81 -16 -95
0 -37 -12 -32 -63 24 -25 28 -47 50 -50 50 -2 0 -17 -28 -32 -62 -15 -35 -29
-64 -30 -65 -1 -2 -27 2 -57 8 -54 11 -56 13 -62 48 -10 59 -7 91 8 91 29 0
66 48 66 85 0 20 8 50 17 68 9 18 20 66 23 107 5 64 11 83 39 124 18 26 31 50
28 52 -8 8 -58 -21 -91 -52 -41 -39 -66 -100 -66 -164 0 -57 -28 -120 -52
-120 -7 0 -30 37 -52 82 -49 105 -127 186 -223 230 -60 29 -80 33 -168 35
l-100 3 3 32 c7 65 37 88 111 88 39 0 61 14 61 39 0 8 -22 36 -50 61 -65 60
-68 95 -12 125 51 28 48 52 -22 211 -37 82 -68 172 -86 251 -34 140 -53 183
-104 233 -34 32 -41 34 -124 40 -103 8 -118 13 -138 52 -14 27 -14 34 7 92 21
59 21 96 0 96 -5 0 -12 -12 -16 -27 -26 -108 -186 -178 -317 -139 -65 19 -94
46 -79 73 5 10 57 47 116 82 106 64 106 64 145 51 47 -16 70 -8 134 45 22 19
55 46 71 59 28 23 29 25 11 32 -12 5 -31 1 -50 -11 -79 -47 -104 -57 -124 -46
-28 15 -32 34 -20 75 7 22 8 40 2 45 -5 4 -57 1 -115 -7 -91 -13 -110 -13
-135 -1 -39 19 -41 50 -10 104 14 24 26 48 26 53 0 5 -47 11 -104 14 -170 8
-200 48 -101 135 30 26 55 53 55 59 0 16 -24 24 -73 25 -61 1 -168 31 -181 51
-14 23 15 54 84 87 30 14 55 32 55 40 0 9 -35 26 -95 46 -106 35 -146 57 -155
86 -8 25 8 45 58 70 37 19 38 21 22 39 -9 9 -37 26 -63 35 -101 38 -157 89
-131 121 7 8 28 22 46 29 51 21 40 45 -27 62 -68 17 -104 42 -108 76 -3 20 3
29 27 42 41 20 39 31 -6 46 -158 51 -235 141 -130 151 20 2 33 9 35 19 2 12
-14 23 -62 40 -36 12 -82 36 -102 52 l-36 30 23 18 c37 28 14 39 -92 45 -184
11 -379 70 -379 116 0 4 9 17 21 29 35 35 19 46 -83 51 -98 6 -187 32 -230 68
l-23 20 25 19 c14 11 22 22 19 25 -3 4 -59 13 -124 21 -153 19 -204 36 -247
84 l-34 38 -119 6 c-193 10 -363 67 -327 109 21 26 -4 35 -113 41 -192 11
-271 39 -244 88 6 12 7 25 2 30 -5 5 -114 10 -243 12 -258 3 -278 7 -337 66
-17 17 -37 31 -45 31 -7 0 -76 11 -152 24 -140 24 -172 38 -160 71 9 22 33 27
149 32 108 5 533 -24 695 -48 92 -13 698 -164 1068 -265 615 -168 1054 -322
1262 -444 149 -87 311 -294 441 -565 69 -145 83 -163 184 -235 90 -65 201
-184 235 -251 17 -32 43 -73 59 -91 15 -18 53 -74 84 -124 63 -101 88 -123
217 -182 47 -21 90 -45 97 -53 12 -15 9 -23 -39 -92 -11 -16 -8 -22 25 -49 20
-16 37 -36 37 -44 0 -8 -16 -31 -35 -53 -41 -45 -43 -59 -13 -110 l22 -39 -27
-39 c-15 -21 -27 -47 -27 -57 0 -38 105 -114 127 -92 3 3 0 33 -7 66 -25 118
8 170 166 260 76 43 81 45 185 50 99 5 139 17 139 40 0 5 -35 20 -77 34 -100
34 -108 39 -108 76 0 29 -5 33 -65 57 -36 14 -69 29 -74 34 -16 15 12 83 49
119 20 19 35 44 35 57 0 42 -46 128 -114 211 -36 45 -66 85 -66 89 0 3 16 28
35 54 65 91 45 113 -99 115 -130 2 -124 1 -135 23 -14 26 5 141 28 164 17 17
23 18 138 1 125 -17 167 -15 177 11 10 27 -11 61 -93 152 -44 48 -81 95 -81
103 0 20 177 190 198 190 10 0 47 -30 82 -66 71 -72 140 -124 164 -124 26 0
35 34 46 162 13 160 15 166 48 175 44 13 304 9 327 -4 18 -10 21 -28 30 -189
8 -148 13 -179 27 -188 28 -17 65 11 162 124 49 58 98 106 108 108 23 4 198
-165 198 -192 0 -10 -33 -53 -73 -95 -41 -42 -81 -87 -90 -101 -21 -31 -22
-66 -1 -74 9 -3 77 -6 153 -6 94 0 142 -4 154 -12 9 -7 22 -39 28 -71 11 -51
10 -59 -6 -77 -16 -17 -31 -20 -112 -20 -52 0 -103 -5 -114 -10 -26 -14 -24
-47 6 -95 13 -22 25 -46 25 -53 0 -8 -32 -53 -71 -100 -72 -88 -119 -169 -119
-208 0 -13 13 -31 35 -45 19 -13 37 -30 40 -37 2 -7 -26 -37 -65 -69 -71 -58
-90 -87 -72 -105 6 -6 61 -16 124 -24 62 -7 114 -13 115 -14 2 0 9 -11 18 -23
14 -21 14 -28 0 -67 -18 -51 -19 -90 -3 -90 23 0 97 51 119 82 15 21 22 43 21
69 -4 64 46 94 218 129 123 25 192 55 244 107 43 43 63 77 244 403 333 604
524 871 693 970 269 158 900 361 1894 609 449 111 423 107 980 146 523 37
1008 75 1014 80 6 7 67 6 85 -1z m-11834 -30 c184 -14 337 -28 339 -30 2 -2
-8 -15 -22 -28 -15 -14 -27 -32 -27 -39 0 -8 -6 -17 -14 -20 -23 -9 -274 10
-356 27 -41 9 -129 19 -194 23 -126 7 -156 19 -156 61 0 40 -7 40 430 6z
m-955 -75 c182 -6 382 -15 445 -19 255 -19 379 -32 453 -45 43 -8 148 -18 232
-21 124 -6 161 -11 185 -25 33 -21 39 -39 13 -40 -10 0 -265 0 -568 1 -689 1
-1252 -18 -1900 -66 -242 -18 -390 -15 -504 11 -95 22 -130 37 -160 69 -31 33
-22 52 34 76 167 72 754 91 1770 59z m14607 0 c335 -17 503 -57 503 -118 0
-49 -73 -76 -279 -107 -130 -20 -147 -20 -1076 -9 -496 5 -865 4 -1205 -4
-269 -7 -498 -9 -508 -5 -10 3 -22 15 -28 26 -25 47 71 110 196 128 331 48
642 75 1030 89 335 12 1139 12 1367 0z m-2667 -112 c16 -12 16 -18 6 -47 -32
-92 -109 -140 -264 -165 -120 -19 -143 -30 -232 -114 -39 -37 -91 -76 -115
-87 -25 -12 -110 -32 -190 -45 -133 -22 -171 -24 -458 -22 -172 0 -324 4 -337
7 -14 4 -25 13 -25 22 0 22 53 40 160 54 141 18 198 36 255 80 62 47 82 56
165 64 102 11 162 32 195 67 53 55 70 59 237 59 180 1 226 9 294 56 41 28 74
40 165 59 63 13 117 24 120 24 3 1 13 -5 24 -12z m-10349 -33 c30 -8 67 -26
82 -39 43 -36 95 -46 277 -51 94 -3 180 -7 193 -10 13 -3 43 -24 66 -48 35
-37 52 -46 102 -55 152 -30 203 -45 264 -82 71 -42 196 -79 269 -79 54 0 131
-32 131 -55 0 -13 -21 -15 -147 -15 -219 1 -709 19 -780 29 -95 14 -163 51
-251 134 -62 59 -91 79 -149 101 -55 21 -82 39 -122 81 -88 93 -63 127 65 89z
m-133 -93 c88 -67 88 -117 2 -106 -258 31 -1409 42 -1815 17 -284 -17 -680
-49 -898 -72 -167 -18 -187 -18 -220 -4 -38 15 -82 51 -82 66 0 30 180 62 460
82 659 49 1124 64 1886 62 l611 -1 56 -44z m12797 -41 c477 -16 561 -29 568
-92 2 -20 -7 -34 -40 -63 -61 -52 -89 -65 -187 -84 -79 -16 -204 -17 -1569
-13 -1379 4 -1484 5 -1504 21 -46 38 21 87 172 127 47 12 124 36 172 53 103
37 136 40 668 50 546 11 1387 12 1720 1z m-13065 -90 c66 -5 203 -12 304 -16
l185 -7 40 -36 c23 -20 58 -49 79 -64 20 -16 37 -35 37 -43 0 -13 -18 -15
-137 -9 -344 15 -805 26 -1358 32 -502 5 -637 3 -825 -11 -491 -35 -961 -48
-975 -25 -12 18 4 58 29 74 27 18 258 44 664 75 221 17 362 25 782 44 135 6
1052 -5 1175 -14z m-445 -190 c613 -14 1182 -31 1207 -36 30 -6 63 -43 63 -71
0 -35 -32 -38 -270 -22 -305 20 -1004 18 -1461 -5 -423 -21 -1301 -19 -1464 4
-93 12 -208 55 -202 74 2 7 100 13 288 17 257 6 448 17 689 39 123 11 681 11
1150 0z m13560 -33 c67 -19 97 -50 77 -81 -21 -32 -76 -55 -158 -66 -45 -6
-446 -7 -1039 -4 -553 4 -1159 2 -1420 -4 -290 -7 -461 -7 -472 -1 -50 27 8
113 93 138 130 40 155 40 1534 36 1134 -3 1338 -6 1385 -18z m-11599 -27 c266
-5 515 -14 554 -20 75 -11 105 -26 143 -72 14 -16 49 -40 77 -53 61 -26 74
-48 42 -70 -18 -12 -62 -15 -262 -15 -249 0 -383 8 -595 36 -92 12 -146 14
-205 8 -147 -15 -256 -11 -294 11 -48 28 -72 65 -78 119 -8 67 6 80 78 72 31
-4 274 -11 540 -16z m8508 -8 c17 -33 -5 -114 -40 -144 -43 -36 -78 -41 -334
-43 -174 -1 -264 -7 -430 -29 -115 -15 -245 -29 -288 -29 -75 -2 -80 -1 -103
26 -13 15 -24 36 -24 45 0 9 -18 33 -41 53 -33 28 -40 40 -35 57 9 27 49 38
191 48 106 9 201 9 635 5 140 -2 233 2 295 12 129 21 162 21 174 -1z m-4824
-37 c-74 -21 -78 -31 -70 -160 3 -60 7 -119 8 -129 4 -40 -23 -25 -64 36 -80
119 -98 138 -131 138 -38 0 -113 -54 -219 -160 -93 -92 -134 -151 -126 -182 4
-14 43 -51 97 -91 127 -95 124 -100 -49 -67 -57 11 -112 18 -122 15 -17 -6
-59 -109 -59 -147 0 -17 -16 -18 -248 -18 -224 0 -250 2 -265 18 -8 9 -42 73
-75 142 -84 178 -184 321 -316 455 -61 61 -127 123 -146 138 l-35 26 935 0
c808 -1 928 -3 885 -14z m1883 -63 c-24 -43 -122 -219 -218 -390 l-175 -312
-154 3 -154 2 -13 55 c-25 99 -63 114 -208 84 -130 -27 -134 -19 -29 61 105
80 119 101 99 148 -35 82 -272 297 -327 297 -35 0 -48 -12 -122 -118 -32 -45
-63 -82 -69 -82 -7 0 -8 34 -2 108 14 181 13 184 -72 207 -42 11 57 13 719 14
l768 1 -43 -78z m-6508 -2 c243 -16 302 -25 323 -51 9 -12 17 -30 17 -42 0
-20 -4 -20 -132 -14 -626 30 -1069 32 -1558 7 -118 -6 -455 -14 -749 -18 -441
-6 -535 -9 -539 -21 -4 -11 103 -13 694 -8 385 3 805 11 935 17 179 9 329 9
625 0 214 -6 505 -14 647 -17 194 -4 260 -9 263 -18 7 -17 -24 -121 -40 -134
-9 -7 -102 -8 -307 -1 -841 27 -1079 30 -1384 20 -529 -18 -1213 -24 -1388
-11 -213 16 -267 40 -267 120 0 34 24 55 124 111 l59 33 471 3 c259 1 563 8
674 14 520 30 1151 34 1532 10z m8123 -46 c43 -21 58 -57 34 -81 -20 -20 -160
-53 -222 -52 -68 1 -95 10 -113 37 -14 21 -13 25 27 62 23 22 56 44 74 49 46
15 156 7 200 -15z m3827 -14 c270 -9 435 -26 478 -49 57 -30 7 -96 -122 -160
-131 -66 -240 -75 -449 -37 -244 46 -496 66 -1081 87 -324 12 -1407 8 -1436
-5 -9 -3 -24 0 -35 8 -29 21 -8 56 52 88 105 58 134 61 573 68 650 10 1722 10
2020 0z m-10980 -74 c192 -23 492 -39 622 -33 65 3 132 2 152 -4 39 -11 66
-42 66 -75 0 -13 12 -36 26 -53 31 -37 28 -67 -9 -95 -28 -20 -39 -21 -340
-21 -315 0 -412 7 -691 46 -143 20 -177 32 -210 68 -41 45 2 141 79 177 34 16
107 14 305 -10z m8178 -12 c30 -17 62 -70 62 -102 0 -29 -36 -78 -66 -90 -41
-16 -244 -48 -474 -74 -255 -29 -652 -32 -694 -4 -53 34 -23 89 92 164 l87 57
155 7 c85 3 247 18 360 32 325 40 424 42 478 10z m-7113 -59 c82 -40 139 -54
213 -55 29 0 66 -7 82 -15 36 -19 40 -50 8 -59 -34 -8 -348 4 -386 16 -50 15
-90 54 -98 95 -14 74 54 80 181 18z m5877 -25 c34 -16 40 -32 22 -59 -28 -39
-101 -51 -315 -51 -122 0 -200 4 -204 10 -23 38 40 80 156 104 89 18 300 16
341 -4z m3118 -40 c407 -18 661 -43 855 -83 49 -10 61 -17 63 -34 6 -40 -25
-80 -85 -109 -65 -32 -67 -32 -268 -11 -354 39 -849 56 -1798 62 -346 3 -633
7 -638 11 -17 10 -9 33 15 46 14 7 35 28 48 47 43 64 81 75 278 82 238 9 1252
2 1530 -11z m-10845 -69 c341 -9 352 -10 420 -36 39 -14 78 -35 88 -47 22 -26
22 -71 0 -89 -18 -15 -296 -17 -1513 -10 -637 3 -786 -1 -1160 -35 -185 -17
-323 -14 -400 9 -34 10 -55 25 -87 65 -47 57 -53 89 -25 116 17 14 64 17 408
22 214 3 470 9 569 14 213 10 1203 4 1700 -9z m2065 -41 c204 0 214 -3 231
-80 6 -28 19 -53 36 -67 63 -51 -13 -78 -202 -70 -235 10 -394 82 -383 174 2
22 10 30 43 40 22 7 53 10 69 8 16 -3 108 -5 206 -5z m5623 -23 c15 -9 27 -24
27 -31 0 -47 -113 -121 -233 -153 -79 -22 -369 -25 -404 -5 -28 16 -29 33 -3
57 10 9 27 38 36 64 9 25 28 56 42 69 25 23 25 24 266 20 211 -3 245 -5 269
-21z m-6748 -43 c220 -18 449 -22 623 -10 l112 8 65 -66 c71 -72 83 -108 46
-145 -22 -22 -49 -27 -261 -41 -294 -20 -636 30 -826 121 -55 26 -114 77 -114
98 0 27 89 63 135 55 11 -2 110 -11 220 -20z m7843 0 c87 -61 -97 -175 -374
-231 -76 -15 -140 -18 -434 -18 -357 0 -410 6 -424 42 -9 23 19 49 71 67 25 9
62 31 83 50 21 19 56 39 77 45 21 6 126 11 234 11 179 0 451 20 553 40 74 14
189 12 214 -6z m2107 -64 c273 -13 588 -38 645 -51 97 -22 154 -86 114 -130
-36 -40 -312 -102 -513 -115 -92 -6 -177 -2 -611 31 -434 32 -1625 105 -1726
105 -102 0 53 141 186 170 57 12 1617 4 1905 -10z m-10254 -86 c59 -33 93 -68
86 -88 -7 -18 -122 -21 -782 -21 -528 0 -1405 -31 -1820 -64 -280 -22 -377
-14 -437 37 -22 19 -23 60 -3 89 19 26 73 38 250 53 292 25 467 28 1539 24
l1119 -4 48 -26z m1394 -44 c45 -8 122 -9 218 -5 l148 7 65 -67 c55 -56 63
-68 54 -85 -6 -11 -19 -24 -30 -30 -24 -13 -132 -13 -201 0 -30 6 -108 18
-173 26 -127 16 -194 38 -238 81 -27 26 -37 70 -20 87 8 9 69 4 177 -14z
m5160 -7 c177 -6 177 -5 173 -50 -6 -69 -79 -94 -272 -92 -194 2 -210 15 -121
104 41 42 60 55 73 50 9 -4 76 -9 147 -12z m1955 -83 c439 -22 1486 -92 1815
-121 339 -29 471 -141 271 -230 -126 -55 -413 -66 -651 -24 -409 73 -1299 168
-1807 193 -91 5 -163 13 -169 19 -17 17 -3 45 54 108 61 66 86 75 202 69 44
-2 172 -9 285 -14z m-7655 -5 l330 0 39 -24 c48 -30 76 -75 76 -123 0 -58 -24
-62 -365 -62 -309 -1 -408 9 -555 56 -116 37 -230 108 -230 143 0 23 21 25
200 18 96 -5 324 -8 505 -8z m6420 1 c203 -1 442 3 530 8 145 8 161 7 174 -8
12 -15 10 -21 -19 -51 -41 -42 -153 -98 -240 -119 -112 -27 -303 -45 -528 -51
-249 -7 -391 2 -403 25 -18 36 -32 132 -23 158 11 32 63 53 109 44 16 -3 196
-6 400 -6z m-7191 -17 c14 -7 37 -29 52 -50 14 -21 37 -45 50 -54 30 -20 31
-43 2 -49 -80 -16 -661 -30 -1134 -27 -613 3 -722 -3 -1379 -68 -127 -12 -275
9 -412 61 -49 18 -54 23 -51 46 5 44 67 68 190 77 57 3 198 13 313 21 290 20
846 35 1585 43 344 4 655 8 692 9 37 1 78 -3 92 -9z m6396 -74 c160 -1 202
-13 221 -62 21 -55 -37 -100 -164 -129 -86 -19 -344 -27 -399 -11 -44 12 -35
40 27 86 30 23 64 59 75 81 20 40 41 51 75 42 11 -3 85 -6 165 -7z m-4850 -30
c32 -10 93 -16 148 -16 108 1 138 -10 200 -68 43 -41 52 -70 29 -90 -21 -17
-146 -24 -227 -12 -41 6 -121 18 -178 26 -121 17 -191 45 -232 92 -24 27 -28
38 -20 52 22 41 162 49 280 16z m-1173 -107 c56 -21 82 -43 67 -58 -18 -18
-707 -57 -1219 -70 -869 -22 -1083 -35 -1345 -82 -183 -34 -336 -27 -395 15
-16 13 -17 18 -6 45 25 59 36 63 233 83 561 55 516 53 1228 54 508 1 754 5
995 19 176 9 321 19 323 21 7 6 63 -6 119 -27z m7848 -4 c459 -32 1312 -126
1585 -174 171 -31 277 -90 249 -142 -36 -68 -222 -83 -414 -36 -211 53 -405
76 -1085 128 -571 44 -1026 96 -1057 122 -34 28 -4 68 67 93 100 36 252 38
655 9z m-6945 -20 c34 -21 56 -57 65 -111 3 -22 15 -49 26 -59 10 -9 19 -30
19 -45 0 -52 -21 -57 -301 -70 -229 -11 -264 -11 -339 4 -142 28 -230 87 -246
165 -8 41 32 86 90 101 25 6 138 12 258 12 117 1 245 5 283 9 111 11 115 11
145 -6z m6082 -30 c53 -27 79 -113 52 -170 -43 -90 -225 -118 -589 -91 -125
10 -236 22 -247 28 -16 9 -19 17 -13 42 4 18 13 61 20 96 10 50 20 71 42 91
l30 27 339 -5 c263 -3 345 -8 366 -18z m-6911 -83 c37 -37 41 -88 7 -95 -13
-3 -120 -12 -238 -20 -118 -9 -246 -18 -285 -21 -290 -21 -692 -38 -1100 -45
-376 -6 -501 -12 -575 -25 -124 -22 -259 -16 -316 13 -94 48 -80 76 46 91 220
27 628 52 1008 61 569 14 1059 37 1242 59 36 5 91 9 123 10 52 1 62 -2 88 -28z
m1392 17 c68 2 69 2 105 -36 21 -21 49 -46 65 -55 15 -10 27 -24 27 -33 0 -62
-384 -71 -520 -13 -95 41 -141 122 -80 141 14 4 95 4 180 1 85 -4 186 -6 223
-5z m4647 -17 c48 -27 51 -47 13 -92 -52 -62 -81 -66 -361 -51 -178 10 -190
17 -143 86 55 79 51 78 271 74 141 -3 202 -7 220 -17z m1252 -55 c186 -24 395
-44 733 -71 707 -56 800 -65 1045 -105 118 -20 147 -29 180 -56 58 -49 33
-102 -64 -134 -102 -33 -584 30 -1627 214 -108 19 -263 42 -345 52 -82 9 -157
20 -166 26 -21 10 -24 51 -5 66 30 25 98 27 249 8z m-7157 -106 c33 -16 65
-30 71 -30 6 0 19 -9 30 -21 18 -20 18 -21 -1 -35 -10 -8 -42 -14 -71 -14 -29
0 -137 -9 -241 -20 -631 -68 -701 -73 -1333 -95 -561 -20 -677 -27 -670 -40 3
-5 25 -10 50 -9 453 8 1142 26 1265 34 88 6 265 22 392 36 128 13 299 31 380
39 82 8 162 17 178 20 44 7 59 -8 61 -57 1 -24 7 -58 15 -76 12 -30 12 -35 -3
-46 -22 -16 -472 -59 -953 -91 -237 -16 -979 -40 -1146 -37 -107 2 -188 26
-252 75 -27 20 -58 39 -70 41 -105 21 -171 41 -192 58 -36 28 -32 64 11 105
91 85 139 92 754 103 272 4 583 13 690 19 471 27 879 57 889 67 15 14 93 0
146 -26z m5682 -47 c25 -13 46 -34 61 -63 44 -87 24 -120 -72 -120 -68 0 -54
-7 -219 110 -71 50 -89 74 -69 95 4 4 64 5 134 2 99 -4 136 -9 165 -24z m1629
-23 c165 -27 400 -68 523 -90 243 -43 692 -110 916 -135 186 -21 224 -45 225
-138 0 -74 -34 -100 -159 -123 -99 -17 -184 -17 -301 1 -52 9 -261 40 -465 69
-370 54 -535 83 -910 156 -110 21 -240 46 -290 55 -92 17 -125 35 -125 65 0
30 34 63 66 63 16 0 207 -29 424 -66 459 -77 701 -115 965 -152 105 -14 253
-35 330 -46 185 -26 332 -34 369 -20 44 18 23 26 -72 28 -48 1 -130 8 -183 17
-53 9 -213 32 -355 51 -376 52 -924 140 -1187 191 -125 24 -240 44 -256 44
-15 0 -36 6 -46 14 -17 12 -18 16 -5 31 42 51 162 48 536 -15z m-6432 34 c19
-7 21 -36 5 -66 -6 -11 -14 -50 -17 -86 -6 -58 -10 -68 -32 -79 -38 -18 -342
-46 -454 -41 -84 3 -111 8 -161 31 -33 15 -63 33 -67 40 -15 23 -8 74 15 108
40 60 59 64 348 78 145 6 265 14 268 17 6 6 77 5 95 -2z m575 -9 c6 -6 7 -30
4 -53 -4 -32 -12 -46 -27 -53 -33 -14 -344 -78 -413 -85 -50 -5 -68 -3 -88 10
-29 19 -28 41 3 120 27 69 41 72 291 71 126 0 225 -5 230 -10z m4636 1 c105
-8 260 -18 345 -21 201 -9 233 -25 232 -116 -1 -53 -18 -74 -87 -106 l-60 -28
-235 0 c-231 1 -446 21 -474 45 -7 5 -11 48 -11 112 0 143 -16 137 290 114z
m-1960 -86 c17 -7 15 -9 -12 -9 -18 -1 -33 4 -33 9 0 12 17 12 45 0z m1291
-15 c100 -77 45 -114 -123 -83 -46 8 -66 9 -74 1 -17 -17 31 -38 158 -66 61
-14 124 -31 140 -39 37 -18 38 -54 0 -82 -25 -19 -42 -21 -145 -20 -86 0 -127
5 -156 17 -38 17 -38 18 -31 55 10 49 8 93 -5 106 -14 14 -13 51 3 64 6 5 30
13 53 16 22 4 58 18 80 31 49 31 60 31 100 0z m-3799 -58 c15 -14 14 -21 -8
-83 -35 -98 -53 -109 -187 -109 -85 0 -114 4 -142 19 -79 42 -102 91 -57 120
12 9 79 29 147 45 136 33 219 36 247 8z m-449 -120 c14 -27 41 -55 72 -75 55
-36 67 -72 30 -92 -36 -19 -180 -40 -345 -50 -88 -5 -187 -14 -220 -21 -99
-19 -178 -8 -275 38 -95 44 -140 87 -140 134 0 16 3 29 8 29 4 1 84 2 177 4
165 3 197 7 480 61 39 7 97 14 130 14 l60 1 23 -43z m4657 5 c186 -39 376 -56
522 -49 92 5 113 4 124 -9 22 -27 -1 -66 -56 -96 -138 -75 -378 -78 -660 -7
-102 26 -139 49 -159 99 -20 51 -20 64 1 85 19 20 22 19 228 -23z m1080 -7
c215 -51 813 -160 1040 -190 337 -44 553 -78 587 -92 34 -13 38 -19 38 -49 0
-76 -76 -99 -305 -91 -208 7 -389 40 -1065 193 -502 114 -560 129 -582 152
-45 45 23 101 125 102 31 0 104 -11 162 -25z m-6693 -47 c10 -5 27 -25 37 -46
11 -20 36 -50 55 -65 69 -54 42 -80 -101 -97 -49 -6 -338 -47 -643 -90 -842
-120 -851 -121 -1076 -99 -199 19 -372 68 -395 110 -10 20 0 74 24 126 25 55
39 57 462 64 532 10 1320 66 1520 108 42 9 88 5 117 -11z m1547 -38 c61 -10
71 -20 71 -67 0 -47 -62 -107 -131 -127 -61 -19 -147 -20 -204 -5 -41 12 -105
67 -105 91 0 27 41 53 143 90 105 39 111 39 226 18z m3426 -45 c128 -47 157
-67 153 -109 -5 -49 -50 -66 -175 -66 -79 0 -115 5 -158 21 -58 22 -63 29 -40
69 8 14 14 42 15 62 0 69 59 75 205 23z m1553 -34 c465 -117 1097 -252 1356
-289 147 -21 165 -32 130 -79 -29 -40 -78 -61 -174 -72 -149 -19 -218 -14
-458 35 -347 69 -556 125 -907 240 -110 37 -209 75 -220 85 -29 28 -11 67 44
96 24 13 50 23 58 23 8 0 85 -18 171 -39z m-1073 -6 c167 -56 322 -79 487 -71
132 6 138 5 148 -14 27 -50 -24 -122 -98 -137 -61 -13 -241 -7 -341 11 -135
25 -318 73 -378 100 -97 45 -90 104 16 137 43 12 57 10 166 -26z m-4325 -50
c32 -17 70 -72 70 -104 0 -38 -43 -68 -144 -100 -182 -58 -408 -83 -583 -63
-141 17 -191 54 -163 122 23 56 83 81 218 91 295 22 382 31 457 48 102 24 110
24 145 6z m739 -49 c21 -13 11 -52 -21 -83 -87 -81 -178 -114 -257 -93 -43 11
-91 49 -91 71 0 7 24 36 53 64 l52 52 127 -2 c69 -2 131 -6 137 -9z m2856 -31
c45 -18 107 -38 138 -44 74 -13 91 -24 107 -61 16 -39 1 -76 -36 -90 -57 -22
-247 -4 -339 32 -52 20 -93 56 -105 93 -15 45 -4 94 22 104 38 14 132 -1 213
-34z m-4471 3 c14 -18 17 -33 12 -72 -7 -61 -28 -94 -73 -113 -34 -14 -534
-133 -733 -174 -52 -10 -153 -34 -224 -51 l-129 -31 -196 12 c-183 12 -200 14
-258 42 -65 31 -113 78 -113 109 0 31 18 68 37 79 10 5 84 17 163 26 149 17
1296 177 1385 194 67 12 106 6 129 -21z m6064 -22 c282 -110 893 -273 1187
-316 44 -7 87 -16 96 -21 25 -13 32 -55 14 -92 -36 -75 -147 -110 -355 -111
l-135 -1 -210 71 c-286 97 -802 292 -842 317 -28 18 -14 43 91 160 14 15 34
27 46 27 11 0 60 -15 108 -34z m-938 -37 c181 -50 349 -79 450 -79 90 0 124
-10 141 -41 17 -34 -13 -83 -62 -103 -53 -21 -437 -22 -553 -1 -119 21 -326
127 -326 166 0 21 31 69 52 80 66 35 94 33 298 -22z m-3930 -9 c13 -13 20 -33
20 -57 0 -32 -7 -44 -52 -86 -129 -121 -390 -195 -701 -199 -151 -2 -182 7
-209 60 -13 26 -14 40 -6 63 12 35 18 36 178 43 69 2 159 12 200 20 109 24
272 80 375 130 104 51 162 59 195 26z m-3427 -135 c80 -22 236 -42 366 -48 52
-2 55 -3 58 -32 11 -90 61 -148 157 -184 31 -11 61 -21 66 -21 6 0 11 -711 13
-1807 3 -1284 7 -1834 15 -1898 65 -506 143 -823 299 -1220 96 -243 271 -586
385 -752 l28 -42 -98 -173 c-55 -95 -145 -254 -200 -353 -56 -99 -108 -189
-115 -200 -13 -17 -19 -13 -77 66 -162 218 -319 475 -460 754 -321 636 -508
1339 -550 2075 -6 105 -10 913 -10 2024 0 1756 1 1848 18 1841 9 -3 56 -17
105 -30z m3556 14 c75 -26 40 -108 -94 -217 -229 -184 -537 -261 -609 -150
-49 76 -24 112 85 123 204 19 410 106 518 219 38 39 51 42 100 25z m3535 -53
c110 -56 191 -76 353 -86 182 -12 216 -33 199 -124 -19 -101 -169 -129 -394
-74 -87 22 -350 143 -389 180 -28 26 -29 59 -5 81 17 15 126 65 144 67 4 0 45
-20 92 -44z m-4728 -1 c23 -14 46 -35 50 -47 9 -30 -32 -63 -104 -84 -246 -68
-531 -177 -762 -292 l-175 -87 -175 0 c-152 0 -180 2 -203 18 -45 29 -33 72
49 179 57 73 96 91 280 130 82 17 320 70 529 119 209 48 400 88 424 88 30 1
58 -7 87 -24z m5994 -99 c140 -54 356 -131 480 -173 244 -81 283 -100 305
-143 44 -85 -13 -154 -125 -152 -77 1 -177 35 -610 207 -470 186 -509 204
-517 235 -5 19 0 29 27 50 18 14 47 37 64 53 47 41 86 33 376 -77z m-4650 -26
c45 -24 11 -91 -99 -192 -78 -73 -127 -101 -246 -144 -99 -35 -187 -44 -226
-24 -22 12 -27 71 -6 88 7 6 43 22 80 35 90 33 205 103 308 189 81 68 85 70
127 64 24 -3 52 -10 62 -16z m312 -18 c9 -18 24 -42 33 -51 27 -31 29 -82 5
-138 -44 -102 -122 -145 -173 -94 -18 18 -22 33 -22 84 1 171 105 303 157 199z
m2855 -14 c35 -22 77 -60 92 -82 49 -70 92 -166 89 -194 -6 -56 -110 -38 -272
47 -114 59 -176 117 -176 164 0 41 10 51 87 82 83 34 107 31 180 -17z m-4411
-22 c65 -65 41 -117 -84 -192 -181 -107 -626 -313 -720 -333 -94 -20 -178 -14
-232 15 -61 33 -79 69 -56 113 30 57 396 222 791 357 77 26 154 53 170 60 54
24 93 18 131 -20z m1379 24 c6 -10 -29 -192 -45 -235 -33 -88 -238 -229 -386
-266 -42 -11 -48 -10 -60 6 -20 27 -17 88 5 116 10 13 57 44 104 67 102 52
198 129 266 214 88 111 101 122 116 98z m4038 -42 c73 -28 265 -105 427 -171
162 -65 367 -144 455 -174 88 -30 166 -60 173 -65 19 -16 14 -54 -11 -84 -37
-43 -106 -44 -245 -5 -124 36 -158 49 -765 302 -144 61 -195 103 -217 178 -7
26 -5 36 11 52 10 10 24 19 29 19 6 0 70 -23 143 -52z m-5095 -55 c-4 -52 -42
-78 -113 -77 -62 1 -102 22 -111 59 -13 51 -4 55 116 55 l111 0 -3 -37z m1466
15 c8 -13 17 -48 21 -79 5 -47 2 -65 -15 -103 -39 -81 -127 -143 -144 -100
-12 31 -6 204 8 238 27 64 101 89 130 44z m2935 -69 c122 -34 146 -55 176
-156 21 -67 19 -90 -9 -108 -29 -19 -62 -13 -126 23 -85 47 -125 97 -150 191
-21 78 -9 83 109 50z m598 -67 c39 -23 120 -61 180 -85 59 -25 178 -75 263
-112 210 -91 316 -131 440 -166 94 -26 109 -33 147 -72 48 -51 73 -118 53
-142 -17 -20 -132 -55 -184 -55 -54 0 -139 22 -227 60 -103 44 -426 220 -679
372 -277 166 -297 192 -184 234 58 21 110 12 191 -34z m-5181 10 c23 -5 71 -5
109 -1 100 12 170 -23 134 -68 -48 -58 -643 -407 -840 -492 -95 -42 -240 -39
-284 6 -31 30 -4 168 38 195 12 8 76 39 142 68 170 75 416 200 510 260 85 55
83 54 191 32z m4143 -51 c36 -22 92 -49 123 -61 64 -23 102 -62 117 -116 11
-40 0 -81 -24 -90 -29 -11 -101 17 -158 62 -52 42 -156 167 -170 207 -18 50
28 49 112 -2z m806 -67 c204 -138 599 -365 787 -451 121 -57 185 -152 196
-295 6 -82 -10 -112 -68 -129 -31 -10 -55 -9 -110 0 -79 14 -131 45 -261 153
-41 35 -158 129 -260 209 -367 291 -403 331 -422 463 -9 65 -9 77 7 100 11 17
21 24 29 19 7 -5 53 -35 102 -69z m-4511 50 c9 -8 16 -25 16 -37 0 -12 7 -31
15 -41 8 -11 15 -29 15 -41 0 -45 -359 -361 -575 -506 -322 -215 -490 -284
-564 -233 -23 16 -23 20 -19 131 3 92 8 118 24 139 11 14 97 66 204 121 217
111 467 258 598 352 183 129 247 155 286 115z m3592 -63 c87 -175 97 -316 21
-297 -72 18 -141 131 -140 231 0 33 8 77 17 98 13 33 19 38 43 35 23 -2 33
-14 59 -67z m-2737 -5 c17 -20 32 -20 90 1 26 9 54 14 63 11 8 -4 20 -27 27
-51 12 -51 33 -63 75 -47 81 31 103 -5 67 -110 -29 -84 -59 -132 -79 -128 -20
4 -30 40 -35 134 -2 41 -7 77 -10 80 -11 11 -26 -6 -38 -44 -29 -90 -114 -196
-153 -190 -38 5 -43 63 -17 180 30 132 19 143 -47 47 -79 -117 -133 -157 -194
-144 -67 15 -41 108 59 207 87 86 117 102 153 83 14 -7 32 -21 39 -29z m2455
-61 c25 -24 44 -35 65 -35 43 0 51 -23 51 -138 0 -78 -3 -102 -16 -113 -40
-33 -108 58 -120 162 -4 34 -12 59 -18 59 -6 0 -22 -42 -35 -92 -29 -115 -45
-148 -72 -148 -66 0 -135 194 -100 283 14 36 34 43 82 27 36 -12 44 -11 82 8
23 11 43 21 44 21 1 1 18 -15 37 -34z m-3068 0 c21 -32 15 -93 -16 -158 -36
-77 -232 -286 -607 -649 -197 -191 -248 -225 -344 -234 -98 -9 -133 32 -145
173 l-7 83 39 38 c22 21 104 77 184 124 234 139 533 375 679 537 75 83 116
110 168 111 24 0 37 -7 49 -25z m1070 -97 c34 -146 41 -266 19 -348 -10 -36
-25 -110 -35 -165 l-17 -99 -37 -8 c-55 -12 -96 -35 -148 -86 -27 -26 -48 -44
-48 -40 0 3 9 48 19 99 11 52 27 146 36 209 23 161 32 193 81 300 24 53 48
124 53 160 7 40 17 70 28 77 9 7 18 11 21 9 2 -2 14 -51 28 -108z m283 -952
c19 -20 40 -57 51 -92 l18 -59 -51 -3 c-43 -3 -54 1 -75 22 -25 24 -25 25 -8
65 9 23 16 55 16 71 0 38 9 38 49 -4z m1020 -19 c1 -11 8 -34 17 -52 15 -32
14 -34 -11 -59 -21 -21 -35 -26 -76 -26 l-51 0 7 33 c11 46 43 106 73 134 24
22 27 23 33 6 4 -10 8 -26 8 -36z m7755 -628 c3 -17 6 -69 6 -114 l0 -82 -101
-49 -100 -49 7 -210 c3 -115 9 -248 13 -294 l6 -84 100 -42 c89 -37 101 -45
106 -71 10 -45 10 -194 0 -194 -7 0 -228 89 -906 364 -99 40 -188 76 -198 79
-16 6 -17 19 -15 124 l3 118 530 267 c292 147 533 267 536 268 4 0 9 -14 13
-31z m-8815 -106 c80 -49 158 -95 173 -103 15 -8 60 -34 99 -57 39 -24 76 -40
82 -36 6 3 7 1 3 -5 -8 -14 30 -36 46 -26 7 4 8 3 4 -4 -8 -14 30 -36 46 -26
6 4 9 3 5 -2 -3 -5 26 -29 65 -53 l71 -44 33 18 c18 10 31 22 27 28 -3 6 -1 7
4 4 6 -4 21 1 34 11 13 10 66 44 117 76 53 33 89 62 85 68 -3 7 -1 8 5 4 7 -4
61 25 124 67 62 41 145 95 184 119 l71 46 254 -19 c262 -19 1685 -122 1934
-140 77 -5 196 -14 265 -19 69 -5 235 -17 370 -26 135 -9 248 -20 252 -23 4
-4 -2 -49 -13 -101 -11 -52 -28 -138 -39 -190 -69 -337 -226 -1097 -421 -2035
-27 -132 -56 -271 -64 -310 -7 -38 -20 -101 -29 -140 -8 -38 -36 -171 -61
-295 -115 -561 -116 -564 -138 -582 -12 -9 -24 -15 -28 -12 -4 2 -130 -26
-280 -63 -151 -36 -319 -76 -374 -88 -90 -20 -670 -157 -870 -205 -44 -11
-120 -29 -170 -40 -49 -12 -162 -39 -250 -60 -88 -20 -222 -52 -298 -70 -88
-20 -135 -36 -130 -42 4 -7 1 -8 -6 -3 -12 7 -50 -8 -256 -105 -55 -25 -130
-59 -167 -75 -38 -15 -65 -32 -61 -38 3 -6 1 -7 -5 -3 -6 4 -24 0 -40 -8 -30
-16 -39 -12 -312 116 -231 109 -249 116 -405 152 -198 46 -671 156 -865 201
-80 19 -311 73 -515 120 -203 47 -397 92 -430 100 -159 38 -536 125 -540 125
-5 0 -13 32 -65 260 -23 102 -63 282 -90 400 -105 457 -232 1019 -250 1100
-10 47 -53 236 -95 420 -41 184 -103 454 -136 600 -33 146 -82 362 -109 480
-76 328 -88 390 -81 393 3 2 22 4 41 5 19 1 157 11 305 22 149 11 684 49 1190
85 789 57 1496 109 1544 114 7 0 79 -38 160 -86z m-6834 37 c186 -47 324 -173
386 -351 30 -87 37 -256 15 -353 -20 -84 -72 -186 -129 -250 l-43 -49 -64 73
c-44 50 -61 76 -54 84 41 54 77 119 89 160 22 73 19 190 -6 264 -79 235 -419
316 -617 146 -51 -43 -98 -137 -112 -225 -18 -103 12 -233 70 -307 l21 -26
-43 -40 c-24 -22 -57 -53 -75 -69 l-32 -30 -21 24 c-36 42 -90 157 -106 227
-22 92 -14 271 15 365 59 184 199 318 379 361 87 22 235 20 327 -4z m14334
-390 c98 -72 109 -83 115 -117 7 -46 8 -143 1 -143 -3 0 -55 25 -115 56 l-110
56 0 37 c0 21 -3 72 -6 114 -4 43 -4 77 0 77 4 0 56 -36 115 -80z m-13935
-852 c12 -80 13 -170 2 -173 -6 -2 -234 -20 -506 -39 -272 -20 -516 -38 -541
-40 l-47 -5 -7 100 c-4 55 -5 103 -2 106 3 3 210 20 459 38 249 19 476 35 503
38 135 10 134 10 139 -25z m228 -23 l106 -49 7 -109 c4 -59 5 -110 2 -113 -3
-3 -55 29 -116 71 -119 84 -119 84 -122 185 -1 69 -1 72 9 67 4 -2 55 -25 114
-52z m14508 -110 c278 -36 511 -65 519 -65 11 0 13 -14 8 -66 -2 -36 -6 -67
-9 -69 -2 -2 -185 -112 -407 -244 -317 -189 -398 -241 -379 -245 12 -3 178
-24 367 -48 l343 -43 -6 -74 c-11 -121 -15 -131 -45 -131 -14 1 -260 31 -546
68 l-520 68 2 35 c1 18 4 57 8 84 l6 51 117 70 c64 39 231 140 370 224 139 84
250 155 247 158 -3 3 -151 24 -330 47 -179 23 -327 44 -330 47 -3 3 0 48 7
101 l12 97 31 0 c16 0 257 -29 535 -65z m-14726 -267 c16 -73 36 -182 36 -193
0 -7 -116 -86 -257 -175 -142 -90 -315 -199 -385 -243 -76 -48 -123 -84 -115
-88 6 -3 205 -41 441 -85 236 -43 434 -84 441 -90 11 -12 52 -210 44 -218 -2
-2 -184 33 -404 79 -220 45 -481 99 -580 120 -99 20 -183 40 -186 44 -7 7 -39
168 -39 196 0 15 117 98 493 347 270 180 495 327 499 328 4 0 10 -10 12 -22z
m15070 -1105 c-4 -16 -19 -64 -34 -108 l-27 -80 -64 -7 c-147 -16 -169 -20
-169 -31 0 -7 -38 -131 -84 -277 l-84 -265 85 -80 85 -80 -33 -102 c-18 -57
-36 -103 -40 -103 -7 0 -508 445 -788 699 -46 42 -90 80 -97 84 -8 4 -14 13
-14 19 0 10 60 207 65 216 1 1 224 29 496 62 272 32 526 63 564 68 39 5 87 10
108 11 36 1 37 0 31 -26z m-14754 -268 c17 -49 30 -94 30 -100 0 -6 -53 -28
-117 -49 -65 -20 -295 -96 -512 -167 -217 -71 -400 -129 -407 -129 -14 0 -78
181 -66 191 4 4 221 77 482 162 261 86 493 162 515 169 22 8 41 14 43 13 1 -1
16 -42 32 -90z m-6 -531 c284 -73 480 -403 416 -701 -18 -80 -17 -80 -114 -43
-47 18 -86 36 -86 41 0 4 5 31 11 59 33 156 -86 373 -236 429 -216 81 -490
-68 -524 -286 -11 -72 5 -167 41 -241 27 -56 128 -161 180 -188 l36 -19 -33
-88 c-18 -49 -36 -91 -39 -94 -13 -13 -137 68 -198 129 -53 53 -78 88 -117
170 -97 200 -104 357 -21 524 69 140 222 260 390 305 82 22 214 24 294 3z
m13611 -243 c155 -72 240 -224 207 -368 -5 -24 -7 -43 -4 -43 3 0 113 28 244
61 131 34 241 60 244 57 3 -3 -19 -55 -49 -114 l-55 -109 -238 -60 -239 -60
-35 -65 c-69 -128 -80 -106 93 -195 84 -43 156 -82 162 -86 8 -8 -72 -189 -83
-189 -3 0 -212 107 -466 237 -254 130 -474 243 -489 251 -15 8 -27 19 -25 26
10 37 265 514 297 554 106 134 282 176 436 103z m-12974 -824 c173 -59 315
-202 381 -383 30 -82 36 -231 13 -310 -30 -105 -81 -187 -164 -266 -193 -185
-437 -234 -650 -131 -144 69 -276 235 -327 408 -83 288 122 601 451 690 81 22
219 18 296 -8z m12200 -448 c756 -169 842 -189 846 -192 7 -8 -130 -177 -144
-177 -8 0 -57 10 -109 22 l-95 22 -23 -25 c-13 -13 -94 -118 -180 -233 l-156
-208 54 -102 55 -102 -66 -86 c-37 -48 -70 -85 -74 -82 -4 2 -29 44 -55 92
-26 48 -96 177 -156 287 -168 306 -233 424 -268 490 -18 33 -48 88 -67 123
l-35 62 68 90 c37 50 72 90 79 90 6 0 153 -32 326 -71z m-691 -756 c83 -39
151 -106 192 -191 30 -61 33 -74 33 -162 0 -87 -3 -101 -33 -165 -29 -60 -53
-89 -180 -211 l-146 -141 108 -116 c59 -63 109 -117 109 -120 1 -2 -32 -36
-73 -75 l-76 -70 -124 132 c-68 72 -194 205 -279 296 -86 91 -200 210 -253
266 -54 55 -98 105 -98 111 0 6 15 24 33 39 17 15 108 99 200 188 237 227 293
258 442 253 65 -3 93 -9 145 -34z m-10979 -145 c79 -84 169 -179 199 -211 l54
-58 -62 -62 -63 -62 -67 70 c-37 39 -129 135 -205 215 l-137 145 62 57 c35 32
65 57 68 58 3 0 71 -69 151 -152z m869 -169 l92 -71 -7 -295 c-7 -286 -7 -295
11 -289 101 31 539 156 546 156 13 0 187 -133 188 -143 0 -9 -47 -72 -255
-342 -72 -93 -191 -249 -264 -345 -74 -96 -137 -179 -141 -184 -8 -8 -170 108
-170 122 0 4 51 72 113 152 217 280 367 480 360 480 -5 -1 -134 -36 -288 -79
-220 -61 -284 -75 -298 -67 -17 10 -18 28 -12 311 5 248 4 297 -7 284 -7 -8
-76 -98 -153 -198 -77 -101 -173 -227 -213 -279 -41 -53 -82 -107 -93 -120
l-18 -24 -81 62 c-44 35 -80 65 -80 69 0 3 33 49 73 101 40 52 161 210 268
350 108 140 224 292 258 338 35 45 67 82 71 82 5 0 49 -32 100 -71z m-4032
-254 c-3 -3 -9 2 -12 12 -6 14 -5 15 5 6 7 -7 10 -15 7 -18z m12747 -460 c150
-40 297 -164 372 -315 43 -87 73 -204 73 -282 -1 -185 -109 -360 -287 -466
-117 -69 -203 -94 -323 -93 -294 1 -551 281 -553 601 0 107 11 158 55 245 74
147 223 262 402 310 69 18 189 18 261 0z m-7548 -102 c46 -27 83 -51 83 -54 0
-4 -538 -950 -544 -956 -1 -1 -40 20 -86 46 -52 30 -85 55 -84 64 1 9 115 215
254 459 283 497 278 488 287 488 4 0 44 -21 90 -47z m425 -230 c45 -20 85 -38
87 -40 4 -3 -33 -90 -219 -512 -111 -253 -139 -325 -129 -332 8 -4 124 -56
259 -115 135 -59 247 -109 249 -111 6 -4 -72 -173 -80 -173 -4 0 -88 35 -186
79 -98 43 -252 111 -343 151 -91 39 -169 76 -174 80 -5 5 76 201 184 447 256
582 248 563 259 563 5 0 47 -17 93 -37z m5877 -268 c222 -53 393 -267 417
-522 19 -205 -87 -403 -266 -497 -61 -32 -488 -196 -510 -196 -7 0 -32 64
-227 595 -46 127 -102 276 -123 333 l-39 104 32 13 c107 44 432 159 482 170
81 18 157 18 234 0z m-4944 -104 c49 -16 91 -34 93 -40 3 -8 -48 -170 -299
-958 l-29 -91 -98 32 c-74 25 -96 37 -94 49 1 9 59 193 128 409 69 216 142
446 162 510 20 65 39 118 42 118 3 0 45 -13 95 -29z m-5635 -15 c0 -2 -8 -10
-17 -17 -16 -13 -17 -12 -4 4 13 16 21 21 21 13z m6437 -192 c241 -47 439 -87
441 -89 6 -6 -30 -185 -37 -184 -3 0 -80 15 -171 33 -147 29 -166 31 -172 17
-7 -14 -76 -362 -150 -756 -12 -60 -24 -114 -28 -118 -12 -13 -200 26 -200 42
0 8 38 210 85 449 47 239 84 437 82 439 -3 2 -78 18 -168 35 -90 17 -166 32
-168 34 -4 4 18 150 26 171 3 7 9 13 14 13 5 0 206 -39 446 -86z m2669 -104
c89 -46 145 -113 175 -211 26 -86 22 -187 -10 -261 -25 -59 -92 -127 -154
-157 -26 -12 -47 -24 -47 -27 0 -3 316 -278 363 -315 11 -9 15 -19 10 -22 -5
-3 -62 -13 -127 -22 l-118 -16 -27 24 c-14 13 -87 77 -161 142 -74 65 -145
127 -157 138 -22 19 -27 20 -124 7 l-101 -13 5 -41 c24 -168 39 -317 34 -322
-8 -8 -190 -33 -199 -27 -5 2 -8 15 -8 28 0 13 -29 245 -65 517 -36 271 -66
506 -68 523 -2 30 -2 30 63 37 36 5 144 19 240 32 114 16 215 24 291 23 112
-2 119 -3 185 -37z m-1511 -30 c82 0 83 0 93 -28 5 -15 46 -115 90 -222 239
-577 352 -854 352 -864 0 -8 -35 -9 -111 -6 l-112 5 -41 102 c-40 99 -42 102
-76 107 -19 3 -152 8 -295 12 l-260 6 -50 -101 -50 -102 -95 2 c-52 1 -102 4
-112 8 -13 5 23 85 219 481 129 261 246 499 259 529 34 75 42 84 77 77 16 -3
67 -6 112 -6z"/>
<path d="M15396 19885 c-22 -8 -51 -22 -65 -33 -98 -72 -95 -259 6 -354 93
-88 268 -52 331 67 19 37 21 136 3 188 -39 115 -160 173 -275 132z"/>
<path d="M20535 19531 c-89 -43 -139 -124 -139 -226 -1 -103 56 -173 165 -201
82 -21 141 -3 202 65 51 57 74 138 59 210 -14 68 -49 113 -108 142 -65 31
-129 35 -179 10z"/>
<path d="M17114 16533 c3 -21 6 -45 6 -54 0 -9 14 -22 30 -29 17 -7 38 -26 46
-41 27 -54 76 -61 122 -19 31 29 28 47 -15 69 -21 10 -69 40 -106 65 -38 25
-73 46 -79 46 -7 0 -8 -14 -4 -37z"/>
<path d="M17756 16505 c-55 -36 -105 -66 -110 -69 -18 -6 7 -39 47 -61 43 -23
60 -17 92 33 11 17 32 36 47 42 14 7 29 21 32 33 8 31 7 87 -1 87 -5 0 -53
-30 -107 -65z"/>
<path d="M17417 16329 c-25 -15 -47 -70 -47 -119 0 -22 -3 -40 -7 -40 -5 0
-44 18 -88 39 -44 22 -82 38 -84 36 -2 -2 5 -21 16 -42 12 -23 42 -54 79 -78
69 -48 111 -106 150 -207 46 -123 67 -125 104 -15 11 34 33 85 50 113 29 51
47 69 125 123 38 26 85 94 74 105 -3 3 -34 -10 -70 -28 -35 -19 -74 -37 -86
-41 -21 -6 -23 -3 -23 35 0 51 -22 105 -48 119 -26 14 -121 14 -145 0z"/>
<path d="M18040 14493 c-25 -14 -92 -43 -149 -62 -58 -20 -107 -42 -109 -48
-6 -22 106 -15 209 11 164 41 201 65 164 106 -25 27 -61 25 -115 -7z"/>
<path d="M17071 14451 c-13 -23 2 -77 28 -108 21 -25 60 -43 94 -43 12 0 39
-9 60 -20 44 -24 70 -25 87 -5 18 22 -9 49 -85 87 -33 17 -76 48 -96 69 -40
42 -72 50 -88 20z"/>
<path d="M25143 12711 c-172 -86 -214 -111 -198 -117 11 -4 116 -45 234 -91
117 -46 215 -82 218 -80 2 3 1 93 -3 201 -5 148 -10 196 -20 196 -7 0 -111
-49 -231 -109z"/>
<path d="M18791 12538 c17 -64 26 -114 21 -117 -5 -3 -49 -31 -97 -61 l-88
-55 34 -7 c19 -3 70 -8 114 -10 l80 -3 29 -113 c16 -62 32 -109 36 -105 4 4
15 31 25 58 10 28 28 73 40 100 l22 51 99 -8 c54 -5 105 -7 113 -6 11 2 -104
107 -158 145 -2 1 15 48 38 105 23 57 41 106 41 110 0 4 -16 -2 -35 -13 -19
-12 -35 -26 -35 -32 0 -6 -3 -8 -6 -4 -4 3 -29 -10 -58 -29 -28 -18 -55 -34
-59 -34 -8 0 -117 87 -158 125 -9 8 -18 15 -22 15 -3 0 8 -50 24 -112z"/>
<path d="M16536 12415 c18 -69 28 -123 23 -120 -8 5 -113 -56 -167 -96 -22
-17 -22 -17 40 -23 35 -4 87 -7 117 -9 45 -2 55 -5 57 -22 2 -11 14 -63 28
-115 l24 -95 20 45 c10 25 30 74 43 109 l24 64 120 -6 120 -6 -35 30 c-19 16
-59 48 -87 71 -29 22 -53 48 -53 58 0 9 18 60 39 113 22 54 38 97 36 97 -3 0
-43 -25 -91 -56 -47 -30 -92 -58 -99 -60 -11 -5 -85 51 -171 128 -19 17 -18
10 12 -107z"/>
<path d="M14965 11675 c-105 -22 -225 -85 -299 -158 -110 -109 -164 -230 -173
-388 -20 -340 215 -606 551 -626 172 -10 328 39 439 138 65 58 131 144 124
162 -3 6 -71 50 -153 96 l-148 84 -15 -24 c-29 -46 -88 -95 -128 -107 -161
-48 -285 59 -285 245 0 60 5 84 27 129 67 136 240 162 342 51 22 -24 42 -49
44 -56 3 -8 61 21 162 79 l157 92 -17 31 c-10 17 -47 61 -83 98 -68 70 -143
114 -239 143 -79 23 -222 28 -306 11z"/>
<path d="M16138 11680 c-299 -54 -499 -287 -501 -580 0 -179 51 -310 167 -425
82 -82 162 -127 272 -155 190 -49 395 -7 542 110 59 47 150 167 136 180 -5 4
-74 44 -154 89 l-145 81 -18 -23 c-96 -119 -188 -147 -297 -89 -137 71 -162
300 -47 416 102 101 252 79 337 -51 l15 -23 144 85 c79 46 148 88 154 94 12
12 -4 40 -60 104 -83 92 -163 143 -278 174 -65 17 -207 24 -267 13z"/>
<path d="M16840 11090 l0 -570 185 0 185 0 2 282 3 283 125 -194 c69 -107 130
-196 135 -197 6 -2 66 84 135 191 l125 194 5 -277 5 -277 188 -3 187 -2 0 570
0 570 -199 0 -199 0 -117 -195 c-65 -107 -121 -195 -125 -195 -4 0 -60 88
-125 195 l-118 195 -198 0 -199 0 0 -570z"/>
<path d="M18260 11095 l0 -565 185 0 185 0 0 155 0 155 123 0 c169 0 297 36
370 103 15 15 27 23 27 20 0 -3 12 7 27 23 43 46 85 148 90 218 6 75 -5 179
-18 171 -5 -3 -6 1 -3 9 9 23 -24 81 -75 135 -48 51 -163 116 -188 107 -8 -3
-12 -2 -9 3 12 19 -157 31 -429 31 l-285 0 0 -565z m571 250 c16 -9 35 -13 41
-9 6 4 8 3 5 -3 -4 -6 0 -19 8 -29 18 -23 19 -100 2 -134 -21 -43 -90 -70
-179 -70 l-77 0 -3 130 -3 130 88 0 c60 0 98 -5 118 -15z"/>
<path d="M19367 11654 c-4 -4 -7 -259 -7 -566 l0 -558 184 0 185 0 3 146 c2
80 -1 152 -5 160 -6 11 2 14 48 14 49 0 57 -3 67 -25 6 -14 15 -25 20 -25 4 0
8 -6 8 -14 0 -7 11 -25 25 -40 13 -14 22 -26 19 -26 -6 0 41 -71 90 -137 l38
-53 204 0 c112 0 204 3 204 7 0 15 -153 233 -163 233 -6 0 -7 3 -4 6 4 4 -6
23 -21 43 -15 20 -36 48 -45 63 l-17 28 38 24 c59 37 126 107 151 158 46 96
45 251 -1 348 -28 57 -97 124 -162 157 -105 53 -126 56 -501 60 -193 3 -353 1
-358 -3z m596 -313 c61 -14 87 -45 87 -103 0 -59 -20 -93 -63 -107 -18 -6 -81
-11 -142 -12 l-110 -2 -3 104 c-1 56 0 109 2 116 6 15 167 18 229 4z"/>
<path d="M17510 10324 c0 -4 7 -34 16 -66 9 -32 15 -60 13 -62 -2 -2 -27 -19
-56 -39 l-52 -35 68 -7 68 -7 13 -56 c7 -32 15 -61 18 -66 3 -6 15 17 28 50
l22 59 68 3 69 3 -49 43 c-54 47 -53 42 -12 138 14 33 14 37 1 32 -8 -4 -15
-10 -15 -15 0 -5 -5 -9 -11 -9 -6 0 -23 -9 -38 -20 -26 -18 -71 -24 -71 -9 0
4 -18 22 -40 39 -22 17 -40 28 -40 24z"/>
<path d="M18810 10259 c0 -8 8 -45 19 -81 21 -77 24 -70 -67 -127 -29 -19 -50
-36 -48 -39 7 -6 36 -9 107 -11 l55 -1 18 -77 c10 -43 21 -82 24 -87 3 -5 19
27 36 70 l31 79 90 -3 c101 -3 101 -9 1 68 -25 19 -46 40 -46 47 0 6 14 41 30
78 36 81 37 90 5 69 -14 -9 -22 -21 -18 -27 4 -6 1 -7 -6 -3 -7 5 -29 -3 -51
-18 -22 -14 -43 -26 -47 -26 -4 0 -27 17 -52 38 -82 67 -81 66 -81 51z"/>
<path d="M16345 9819 c11 -33 45 -172 49 -196 2 -12 -1 -20 -6 -17 -10 7 -118
-56 -118 -69 0 -4 -4 -6 -8 -3 -5 3 -21 -6 -38 -19 l-29 -24 85 -3 c47 -1 100
-2 118 -3 36 0 32 8 68 -140 9 -38 20 -73 23 -77 3 -4 24 36 45 90 22 53 42
100 45 104 4 4 59 4 124 0 l117 -7 -33 25 c-86 68 -147 122 -147 132 0 6 18
56 40 110 22 55 40 103 40 106 0 3 -8 -2 -17 -10 -30 -25 -173 -108 -187 -108
-7 0 -24 10 -37 23 -39 37 -126 107 -134 107 -3 0 -3 -9 0 -21z"/>
<path d="M24847 10140 c-131 -15 -240 -30 -242 -32 -5 -5 349 -316 367 -323 9
-4 30 52 71 182 60 194 62 204 50 202 -5 -1 -115 -14 -246 -29z"/>
<path d="M24221 9168 c-28 -14 -54 -37 -73 -67 -53 -83 -160 -303 -151 -311 4
-4 74 -41 155 -83 l148 -75 81 156 c83 157 101 214 85 276 -15 60 -103 125
-171 126 -16 0 -50 -10 -74 -22z"/>
<path d="M11210 8338 c-118 -41 -211 -125 -263 -236 -27 -58 -29 -70 -25 -145
3 -69 9 -92 38 -146 113 -212 314 -269 527 -149 61 34 142 120 172 180 65 136
38 281 -77 409 -90 100 -236 134 -372 87z"/>
<path d="M23470 7927 c0 -6 231 -421 240 -431 4 -4 63 65 130 154 67 89 120
163 118 165 -1 1 -104 26 -228 54 -124 29 -233 54 -242 57 -10 3 -18 4 -18 1z"/>
<path d="M22743 7145 c-18 -8 -72 -52 -120 -98 -49 -46 -105 -98 -125 -117
-21 -18 -38 -37 -38 -41 0 -10 252 -279 261 -279 14 0 250 225 270 256 42 68
34 163 -18 225 -54 63 -154 87 -230 54z"/>
<path d="M21388 6120 c-106 -18 -233 -113 -279 -207 -31 -63 -38 -178 -15
-255 35 -121 127 -233 230 -282 136 -64 306 -20 425 109 58 65 81 124 81 215
0 249 -220 458 -442 420z"/>
<path d="M20153 5510 c-34 -7 -269 -88 -282 -96 -4 -3 45 -141 139 -394 34
-91 69 -185 77 -210 9 -25 19 -49 23 -53 8 -9 200 57 268 92 145 74 209 220
168 381 -51 199 -216 317 -393 280z"/>
<path d="M18478 5117 c-113 -15 -148 -24 -148 -35 0 -27 42 -327 46 -331 11
-12 352 41 391 60 50 24 81 69 89 132 10 69 -31 148 -90 176 -52 26 -92 25
-288 -2z"/>
<path d="M17212 4799 c-70 -144 -105 -226 -98 -230 11 -7 396 -19 396 -13 0 6
-182 459 -186 463 -2 2 -53 -97 -112 -220z"/>
</g>
</svg>
